<svg xmlns="http://www.w3.org/2000/svg" width="84" height="80" fill="none"><g fill="#83B3D3" filter="url(#a)"><path d="M34.118 65h16.065V41.2H34.118V65Zm2.912-20.9h10.14v18H37.03v-18Z"/><path d="m77.392 39.3 2.108-2.1-9.94-9.9V0H55.604v13.6L41.95 0 4.5 37.2l2.108 2.1 7.832-7.8v37.6h-4.016V72H74.58v-2.9h-5.12V31.5l7.932 7.8ZM66.548 69.1H17.351V28.5L41.95 4.1l24.598 24.4v40.6Zm0-44.7-7.931-7.9V2.9h7.931v21.5Z"/><path d="M34.32 27.1c0 4.3 3.513 7.7 7.73 7.7 4.318 0 7.832-3.5 7.832-7.7 0-4.3-3.514-7.7-7.832-7.7-4.217 0-7.73 3.4-7.73 7.7Zm7.83-5c2.711 0 5.02 2.2 5.02 4.9s-2.208 4.9-5.02 4.9c-2.71 0-5.02-2.2-5.02-4.9s2.21-4.9 5.02-4.9ZM24.48 41.2h-3.012v3.9h3.012v-3.9ZM30.404 41.2h-3.012v3.9h3.012v-3.9ZM24.48 47.2h-3.012v3.9h3.012v-3.9ZM30.404 47.2h-3.012v3.9h3.012v-3.9ZM56.508 41.2h-3.012v3.9h3.012v-3.9ZM62.432 41.2H59.42v3.9h3.012v-3.9ZM56.508 47.2h-3.012v3.9h3.012v-3.9ZM62.432 47.2H59.42v3.9h3.012v-3.9Z"/></g><defs><filter id="a" width="84" height="80" x="-.5" y="0" color-interpolation-filters="sRGB" filterUnits="userSpaceOnUse"><feFlood flood-opacity="0" result="BackgroundImageFix"/><feColorMatrix in="SourceAlpha" result="hardAlpha" values="0 0 0 0 0 0 0 0 0 0 0 0 0 0 0 0 0 0 127 0"/><feOffset dy="4"/><feGaussianBlur stdDeviation="2"/><feComposite in2="hardAlpha" operator="out"/><feColorMatrix values="0 0 0 0 0 0 0 0 0 0 0 0 0 0 0 0 0 0 0.25 0"/><feBlend in2="BackgroundImageFix" result="effect1_dropShadow_63814_132"/><feBlend in="SourceGraphic" in2="effect1_dropShadow_63814_132" result="shape"/></filter></defs></svg>